<?xml version="1.0" ?><svg id="Layer_1" style="enable-background:new 0 0 74 74;" version="1.1" viewBox="0 0 74 74" xml:space="preserve" xmlns="http://www.w3.org/2000/svg" xmlns:xlink="http://www.w3.org/1999/xlink"><style type="text/css">
	.st0{fill:#2B3033;}
</style><g><path class="st0" d="M71,28.2h-2.2c-0.9-2.1-2-4-3.5-5.9l1.7-13c0.1-0.9-0.3-1.7-1.1-2.1c-0.8-0.4-1.7-0.2-2.3,0.4l-7.1,7.4   c-4.6-2.5-9.9-3.8-15.3-3.8c-10.2,0-18,3.4-23.3,10.1c-2.9,3.7-4.7,8.1-5.2,12.7c-3.8-0.5-7.2-1.6-7.6-2.6c0-0.1,0.1-0.4,0.4-0.9   c0.6-0.5,1.1-0.9,1.5-1.1c0.2,0.9,0.9,1.6,1.8,1.6c1.1,0.1,2.1-0.8,2.1-1.9c0.1-2.4-0.8-3.5-1.7-3.9c-2-1-4.4,0.6-6.4,2.3   c-0.1,0.1-0.2,0.2-0.3,0.3c-1.8,2.2-1.7,4-1.2,5.2c1.5,3.4,7.6,4.6,11.2,5.1c0.2,4.5,1.6,9,4.3,12.8c1.7,2.5,3.9,4.6,6.4,6.3v7.6   c0,1.1,0.9,2,2,2h10.3c1,0,1.8-0.7,2-1.7l0.4-2.7c2.1,0.2,4.4,0.2,6.5,0l0.4,2.6c0.1,1,1,1.7,2,1.7H57c1.1,0,2-0.9,2-2v-7.5   c4.5-3,8-7.1,9.9-11.8H71c1.1,0,2-0.9,2-2V30.2C73,29.1,72.1,28.2,71,28.2z M69,41.6h-1.5c-0.9,0-1.6,0.5-1.9,1.4   c-1.6,4.7-5,8.8-9.6,11.6c-0.6,0.4-1,1-1,1.7v6.6h-6.6L48,60l-0.7-5.1c-0.2-1.1-1.2-1.8-2.3-1.7c-1.1,0.2-1.9,1.2-1.7,2.3l0.4,3   c-1.8,0.2-3.6,0.1-5.3,0l0.4-3c0.2-1.1-0.6-2.1-1.7-2.3C36,53,35,53.8,34.9,54.9l-0.7,5c0,0,0,0,0,0l-0.4,2.9h-6.6v-6.7   c0-0.7-0.4-1.3-0.9-1.7c-2.5-1.5-4.5-3.5-6.2-5.8C14.9,41.3,15.3,31.1,21,24c4.5-5.7,11.3-8.6,20.2-8.6c5.3,0,10.3,1.4,14.6,4   c0.8,0.5,1.8,0.4,2.5-0.3l4-4.1l-1,7.8c-0.1,0.6,0.1,1.1,0.5,1.6c1.7,2,3,4.2,3.8,6.6c0.3,0.8,1,1.3,1.9,1.3H69V41.6z"/><circle class="st0" cx="57.9" cy="29.8" r="2"/><path class="st0" d="M49,18.9c-5.1-1.5-10.4-1.5-15.5,0c-1.1,0.3-1.7,1.4-1.3,2.5c0.3,1.1,1.4,1.7,2.5,1.3c4.3-1.3,8.9-1.3,13.2,0   c0.2,0.1,0.4,0.1,0.6,0.1c0.9,0,1.7-0.6,1.9-1.4C50.6,20.3,50,19.2,49,18.9z"/></g></svg>