<?xml version="1.0" ?><!DOCTYPE svg  PUBLIC '-//W3C//DTD SVG 1.1//EN'  'http://www.w3.org/Graphics/SVG/1.1/DTD/svg11.dtd'><svg enable-background="new 0 0 91 91" height="91px" id="Layer_1" version="1.1" viewBox="0 0 91 91" width="91px" xml:space="preserve" xmlns="http://www.w3.org/2000/svg" xmlns:xlink="http://www.w3.org/1999/xlink"><g><g><g><g><path d="M69.495,46.451c-1.293,0-2.512,0.312-3.6,0.849c-1.125-3.159-4.141-5.43-7.684-5.43c-2.188,0-4.172,0.871-5.637,2.277      c-1.465-1.406-3.453-2.277-5.643-2.277c-1.107,0-2.162,0.225-3.127,0.625V28.093c0-4.496-3.658-8.154-8.154-8.154      s-8.152,3.658-8.152,8.154v17.2v1.904v4.211c-3.672,0.189-9.113,1.393-9.113,9.088c0,5.744,6.875,18.291,13.881,19.889      c4.561,6.289,11.963,10.391,20.305,10.391c14.066,0,25.084-10.57,25.084-24.064c0-1.387-1.125-2.512-2.514-2.512      c-1.387,0-2.512,1.125-2.512,2.512c0,10.676-8.811,19.039-20.059,19.039c-6.951,0-13.084-3.561-16.682-8.951      c-0.041-0.07-0.078-0.143-0.127-0.209c-2.041-3.139-3.238-6.875-3.238-10.891V47.196v-1.904v-17.2      c0-1.725,1.402-3.129,3.127-3.129c1.727,0,3.129,1.404,3.129,3.129v21.93v8.371v0.4c0,1.387,1.125,2.512,2.514,2.512      c1.387,0,2.512-1.125,2.512-2.512v-0.4v-8.371c0-1.725,1.402-3.127,3.127-3.127c1.721,0,3.119,1.391,3.133,3.104      c0,0.008-0.002,0.016-0.002,0.023v8.771c0,0.133,0.014,0.225,0.033,0.297c0.148,1.246,1.197,2.215,2.482,2.215      c1.299,0,2.357-0.99,2.486-2.258c0.01-0.047,0.014-0.105,0.018-0.172c0-0.027,0.008-0.055,0.008-0.082v-8.771      c0-0.008,0-0.016,0-0.023c0.012-1.713,1.406-3.104,3.121-3.104c1.729,0,3.135,1.402,3.135,3.127v4.516      c0,0.023-0.002,0.045-0.002,0.068v4.188c0,0.145,0.014,0.254,0.037,0.348c0.172,1.221,1.209,2.164,2.479,2.164      c1.289,0,2.338-0.973,2.482-2.223c0.012-0.063,0.02-0.133,0.021-0.213c0.002-0.025,0.008-0.051,0.008-0.076v-4.223      c0.02-1.709,1.412-3.096,3.123-3.096c1.729,0,3.135,1.404,3.135,3.131v2.082c0,1.389,1.125,2.514,2.512,2.514      c1.389,0,2.514-1.125,2.514-2.514v-2.082C77.655,50.108,73.995,46.451,69.495,46.451z M23.411,60.495      c0-2.543,0.41-3.771,4.088-4.043v9.246c0,1.779,0.189,3.516,0.543,5.191C25.558,67.571,23.411,63.229,23.411,60.495z"/><path d="M45.091,34.222c-0.955,1.007-0.912,2.597,0.096,3.55c0.484,0.461,1.107,0.689,1.727,0.689      c0.666,0,1.33-0.264,1.824-0.785c2.834-2.992,4.529-6.904,4.775-11.013c0.289-4.689-1.266-9.207-4.375-12.725      c-3.111-3.518-7.408-5.613-12.098-5.9c-9.666-0.586-18.029,6.801-18.619,16.477c-0.287,4.688,1.27,9.208,4.381,12.724      c0.92,1.039,2.508,1.137,3.547,0.217s1.137-2.508,0.217-3.546c-2.223-2.512-3.334-5.741-3.129-9.09      c0.422-6.91,6.389-12.186,13.299-11.766c3.348,0.205,6.416,1.701,8.639,4.213c2.221,2.512,3.33,5.738,3.125,9.092      C48.323,29.294,47.112,32.087,45.091,34.222z"/><path d="M54.681,38.311c1.223,0.648,2.746,0.182,3.396-1.045c1.664-3.142,2.621-6.556,2.846-10.154      c0.838-13.76-9.672-25.639-23.43-26.479c-6.67-0.406-13.09,1.805-18.09,6.23c-5,4.424-7.979,10.531-8.385,17.195      c-0.547,8.951,3.779,17.56,11.293,22.472c0.424,0.276,0.9,0.409,1.373,0.409c0.818,0,1.623-0.399,2.105-1.138      c0.758-1.161,0.432-2.72-0.729-3.478c-6.006-3.926-9.465-10.806-9.027-17.958c0.324-5.324,2.703-10.203,6.699-13.738      c3.996-3.537,9.133-5.299,14.453-4.979c10.994,0.672,19.391,10.162,18.721,21.152c-0.18,2.877-0.943,5.605-2.271,8.113      C52.987,36.141,53.454,37.661,54.681,38.311z"/></g></g></g></g></svg>