<?xml version="1.0" encoding="UTF-8" standalone="no"?>
<svg width="190px" height="418px" viewBox="0 0 190 418" version="1.1" xmlns="http://www.w3.org/2000/svg" xmlns:xlink="http://www.w3.org/1999/xlink">
    <!-- Generator: Sketch 46.2 (44496) - http://www.bohemiancoding.com/sketch -->
    <title>left bar</title>
    <desc>Created with Sketch.</desc>
    <defs></defs>
    <g id="Page-1" stroke="none" stroke-width="1" fill="none" fill-rule="evenodd">
        <g id="Fresh-in-the-State" transform="translate(-36.000000, -54.000000)">
            <g id="left-bar" transform="translate(36.000000, 54.000000)">
                <rect id="Rectangle-2" fill-opacity="0.6" fill="#D8D8D8" x="0" y="0" width="190" height="418"></rect>
                <g id="tool" transform="translate(39.000000, 105.000000)">
                    <path d="M12.0938382,13.5198142 L12.0009312,13.7068204 L12.1173044,13.8800966 L13.2616303,15.5839631 L13.3084515,15.1269878 L11.2725633,17.119276 L11.7046912,17.0679841 L9.83609854,15.9506419 L9.68144228,15.8581638 L9.51538185,15.9279357 C9.39732987,15.9775363 9.27717028,16.0228518 9.15588781,16.063506 L8.96208444,16.1284692 L8.9196651,16.3290692 L8.51069159,18.2630947 L8.86005328,17.9790705 L5.98055319,17.9790705 L6.32722671,18.2513572 L5.8277566,16.2268784 L5.78321079,16.046323 L5.61046359,15.9789386 C5.50269019,15.9368989 5.39589623,15.8910413 5.29087178,15.8417055 L5.11256194,15.7579436 L4.94679513,15.8645418 L3.19162119,16.9932266 L3.63361862,17.038385 L1.59773051,15.0462087 L1.65102907,15.4932028 L2.79274273,13.6649351 L2.89375006,13.5031884 L2.81639297,13.3288008 C2.76266114,13.2076722 2.7137084,13.0840024 2.66992532,12.9587973 L2.60265951,12.7664393 L2.40354495,12.7261339 L0.427753901,12.3261873 L0.714285718,12.6775496 L0.714285718,9.85999925 L0.438960352,10.2089045 L2.50812145,9.7201661 L2.68726225,9.67785283 L2.75689518,9.50688211 C2.80714475,9.3835036 2.86261285,9.26174011 2.92281062,9.1426499 L3.01698914,8.95633505 L2.90187384,8.78226768 L1.82646125,7.15612189 L1.78017001,7.60905547 L3.80400935,5.59807598 L3.36785372,5.65003106 L5.1664066,6.74219588 L5.32159022,6.83643057 L5.48895259,6.7662634 C5.58589566,6.72561974 5.68437463,6.68782834 5.78371991,6.6531412 L5.96652306,6.58931414 L6.01304344,6.40075709 L6.49566488,4.44458953 L6.1489915,4.71687541 L9.02823038,4.71687541 L8.67886841,4.4328499 L9.10144172,6.43122474 L9.14216459,6.62380563 L9.32594534,6.69263204 C9.47522294,6.74853692 9.62205312,6.81141195 9.76505394,6.88066666 L9.94330144,6.9669912 L10.1107249,6.86106351 L11.7725777,5.80962024 L11.3348423,5.76503141 L13.3910567,7.74529003 L13.3371006,7.29410893 L12.2198764,9.05459266 L12.1174484,9.2159951 L12.1940851,9.39121672 C12.2467965,9.51173574 12.2948051,9.63482502 12.3376896,9.75937304 L12.4019433,9.94598299 L12.5934376,9.99120864 L14.5610492,10.4559039 L14.2857143,10.1069964 L14.2857143,12.9245468 L14.5722387,12.573186 L12.4948655,12.9937409 L12.3083552,13.0314991 L12.235534,13.2079163 C12.1921692,13.3129725 12.144828,13.41718 12.0938382,13.5198142 Z M12.5654839,13.3451017 L12.6361023,13.6964625 L14.7134756,13.2759075 L15,13.2179019 L15,12.9245468 L15,10.1069964 L15,9.82311537 L14.7246651,9.75808893 L12.7570536,9.29339367 L12.6752456,9.64230116 L13.0128016,9.52522927 C12.9636294,9.38242026 12.908595,9.24131743 12.8481331,9.10307779 L12.5211091,9.24714727 L12.8223418,9.43970186 L13.939566,7.67921813 L14.0968112,7.43143659 L13.88561,7.22803702 L11.8293956,5.24777841 L11.6278977,5.0537237 L11.3916602,5.20318958 L9.72980732,6.25463285 L9.9202661,6.55784817 L10.0754782,6.23502969 C9.91263353,6.15616467 9.74554519,6.08461476 9.575662,6.02099303 L9.45080369,6.35681254 L9.80016562,6.28240034 L9.37759232,4.2840255 L9.31753271,4 L9.02823038,4 L6.1489915,4 L5.86949594,4 L5.80231815,4.27228589 L5.31969675,6.22845347 L5.66637009,6.31460528 L5.54902028,5.97606936 C5.43598688,6.01553579 5.32395899,6.0585266 5.21362556,6.10478422 L5.35128907,6.43552381 L5.53617157,6.12885175 L3.73761866,5.03668693 L3.49935835,4.89200419 L3.30146306,5.08864201 L1.27762373,7.09962151 L1.06893202,7.30698718 L1.23133251,7.55255509 L2.30674509,9.17870088 L2.60430946,8.98048427 L2.28580831,8.81831864 C2.21684229,8.95475519 2.1533064,9.0942291 2.09571274,9.23563966 L2.42630395,9.37126087 L2.34448646,9.02235565 L0.275325366,9.51109401 L0,9.5761262 L0,9.85999925 L0,12.6775496 L0,12.9709111 L0.286531816,13.0289119 L2.26232287,13.4288584 L2.33293392,13.0774962 L1.99594251,13.196195 C2.04613554,13.3397305 2.10224133,13.4814711 2.16385386,13.6203654 L2.49012341,13.4745831 L2.1875041,13.2842311 L1.04579045,15.1124988 L0.89274375,15.3575781 L1.09908901,15.559493 L3.13497712,17.5516694 L3.33810482,17.7504357 L3.57697456,17.5968278 L5.3321485,16.468143 L5.13947181,16.1663424 L4.98807182,16.4909793 C5.10755021,16.5471049 5.22903168,16.5992694 5.3517025,16.6471202 L5.48108306,16.3130294 L5.1344095,16.3991804 L5.63387962,18.4236592 L5.70105697,18.6959459 L5.98055319,18.6959459 L8.86005328,18.6959459 L9.14935453,18.6959459 L9.20941497,18.4119217 L9.61838846,16.4778962 L9.26902679,16.4034827 L9.38216578,16.7434594 C9.52019893,16.6971904 9.65688816,16.6456411 9.7912154,16.5892022 L9.65329862,16.2585689 L9.47049875,16.566496 L11.3390914,17.6838382 L11.5747852,17.8247735 L11.7712192,17.6325463 L13.8071073,15.6402581 L14.0205537,15.4313827 L13.8539285,15.1832828 L12.7096027,13.4794162 L12.4134535,13.6797564 L12.7330689,13.8396986 C12.7914589,13.7221694 12.8456959,13.6027826 12.8954338,13.482287 L12.5654839,13.3451017 Z" id="Shape" fill="#515151" fill-rule="nonzero"></path>
                    <path d="M10.7432432,11.2972973 C10.7432432,9.61805315 9.38194685,8.25675676 7.7027027,8.25675676 C6.02345851,8.25675676 4.66216216,9.61805315 4.66216216,11.2972973 C4.66216216,12.9765415 6.02345851,14.3378378 7.7027027,14.3378378 C8.13279558,14.3378378 8.55095329,14.2482709 8.93604508,14.0771947 C9.11658915,13.9969883 9.19792895,13.7856083 9.11772258,13.6050642 C9.03751623,13.4245202 8.82613627,13.3431804 8.64559219,13.4233867 C8.35150808,13.5540331 8.03224859,13.6224166 7.7027027,13.6224166 C6.41857481,13.6224166 5.37758344,12.5814252 5.37758344,11.2972973 C5.37758344,10.0131694 6.41857481,8.97217806 7.7027027,8.97217806 C8.9868306,8.97217806 10.0278219,10.0131694 10.0278219,11.2972973 C10.0278219,11.4669719 10.0097072,11.6340556 9.97413978,11.7966894 C9.9319322,11.9896861 10.0541709,12.180357 10.2471676,12.2225645 C10.4401644,12.2647721 10.6308352,12.1425334 10.6730427,11.9495367 C10.7195728,11.736775 10.7432432,11.5184488 10.7432432,11.2972973 Z" id="Shape" fill="#515151" fill-rule="nonzero"></path>
                    <text id="TOOLS" font-family="AvenirNext-Bold, Avenir Next" font-size="16" font-weight="bold" letter-spacing="0.5" fill="#4A4A4A">
                        <tspan x="21" y="16">TOOLS</tspan>
                    </text>
                    <text id="Final-Cut-Pro-Photos" font-family="AvenirNext-Regular, Avenir Next" font-size="12" font-weight="normal" letter-spacing="0.5" fill="#4A4A4A">
                        <tspan x="0" y="38">Final Cut Pro</tspan>
                        <tspan x="0" y="56">Photoshop</tspan>
                    </text>
                </g>
                <g id="myrole" transform="translate(38.000000, 24.000000)">
                    <text id="MY-ROLE" font-family="AvenirNext-Bold, Avenir Next" font-size="16" font-weight="bold" letter-spacing="0.5" fill="#4A4A4A">
                        <tspan x="28" y="16">MY ROLE</tspan>
                    </text>
                    <path d="M13.2877419,19 L3.95096772,19 C3.43999999,19 2.95225806,18.813169 2.58064514,18.439507 C2.20903225,18.065845 1.99999997,17.5987674 2,17.0616283 L2.0232258,14.7963023 C2.11612904,14.3759325 2.32516129,14.0256244 2.62709677,13.8154395 C3.0219355,13.5118391 3.55612903,13.5118391 4.13677417,13.8621473 L4.27612901,13.9322089 L4.43870966,13.9789167 C4.92645159,14.2124554 5.39096772,14.1891015 5.80903224,14.0256244 C6.01806449,13.9322089 6.20387096,13.8154395 6.36645161,13.6519624 C6.52903225,13.4884853 6.64516129,13.3016543 6.7380645,13.0914694 C6.83096774,12.8812845 6.87741934,12.6710996 6.87741934,12.414207 C6.87741934,12.1573143 6.83096774,11.9471294 6.7380645,11.7369445 C6.64516126,11.5267597 6.52903225,11.3399286 6.36645161,11.1764515 C6.18064516,11.0129744 6.01806452,10.8728511 5.78580644,10.8027895 C5.36774191,10.6159585 4.90322578,10.6159585 4.41548385,10.8261434 L4.25290321,10.896205 C4.09032257,10.9662666 3.92774192,11.0596821 3.78838708,11.1297438 C3.57935483,11.2231593 3.37032255,11.269867 3.18451611,11.269867 L3.04516127,11.269867 C2.71999998,11.2465131 2.4412903,11.0596821 2.25548385,10.7794356 C2.09290321,10.5458968 2.02322577,10.2656504 2,9.84528057 L2,7.81349336 C2,7.27635422 2.20903225,6.8092767 2.58064514,6.43561467 C2.95225803,6.06195266 3.43999999,5.85176776 3.95096772,5.85176776 L5.71612903,5.85176776 C5.59999999,5.50145962 5.53032259,5.10444372 5.53032256,4.70742784 C5.53032256,4.19364258 5.6232258,3.70321118 5.83225804,3.25948753 C6.01806449,2.81576388 6.29677417,2.41874801 6.62193549,2.09179371 C6.94709681,1.76483942 7.3419355,1.5079468 7.7832258,1.29776193 C8.66580645,0.900746023 9.73419355,0.900746023 10.64,1.29776193 C11.0812903,1.48459293 11.476129,1.76483945 11.8012903,2.09179371 C12.1264516,2.41874798 12.3819355,2.81576388 12.5909677,3.25948753 C12.7767742,3.70321118 12.8929032,4.19364258 12.8929032,4.70742784 C12.8929032,5.10444375 12.8232258,5.47810575 12.7070968,5.85176776 L13.3109677,5.85176776 C13.8451613,5.85176776 14.3096774,6.06195263 14.6812903,6.43561467 C15.0529032,6.80927667 15.2387097,7.29970809 15.2387097,7.81349336 L15.2387097,9.12131041 C16.0516129,8.81771002 17.0038709,8.84106389 17.8167742,9.19137205 C18.2580645,9.37820305 18.6296774,9.6350957 18.9548387,9.96204996 C19.28,10.2890042 19.5354839,10.6860201 19.7212903,11.1063899 C19.9070968,11.5501135 20,12.0171911 20,12.5076224 C20,12.9980538 19.9070968,13.4884852 19.7212903,13.9322089 C19.5354839,14.3525787 19.28,14.7495945 18.9548387,15.0765488 C18.6296774,15.4035031 18.2348387,15.6603957 17.8167742,15.8472267 C17.003871,16.1975349 16.0516129,16.2208887 15.2387097,15.9172884 L15.2387097,17.0616283 C15.2387097,17.5987674 15.0529032,18.065845 14.6812903,18.439507 C14.2864516,18.7898151 13.7987097,19 13.2877419,19 L13.2877419,19 Z M3.41677419,15.053195 L3.41677419,17.0382744 C3.41677419,17.1783977 3.46322579,17.295167 3.57935483,17.4119364 C3.69548387,17.5287058 3.81161291,17.5754136 3.97419353,17.5754136 L13.2877419,17.5754136 C13.4503226,17.5754136 13.5432258,17.5287058 13.6593548,17.4119364 C13.7754839,17.295167 13.8219355,17.2017516 13.8219355,17.0382744 L13.8219355,13.1381771 L14.9832258,14.1423938 C15.1690323,14.3058709 15.4012903,14.4459942 15.6567742,14.5394097 C16.1445161,14.7495945 16.7483871,14.7262407 17.2593548,14.5160558 C17.5380645,14.3992864 17.7703226,14.2358093 17.956129,14.0489783 C18.1651613,13.8387934 18.3277419,13.6052546 18.443871,13.348362 C18.56,13.0914694 18.6064516,12.8112229 18.6064516,12.5076224 C18.6064516,12.2040221 18.56,11.9237755 18.443871,11.6668829 C18.3277419,11.3866364 18.1651613,11.1530977 17.9793548,10.9662666 C17.7703226,10.7560817 17.5380645,10.6159585 17.2825806,10.4991891 C16.7716129,10.2890042 16.1677419,10.2656503 15.68,10.4758352 C15.4245161,10.5692507 15.1922581,10.709374 15.0064516,10.8728511 L13.8451613,11.8537139 L13.8451613,7.79013949 C13.8451613,7.62666236 13.7987097,7.50989297 13.6825806,7.39312358 C13.5664516,7.27635419 13.4735484,7.22964645 13.3109677,7.22964645 L9.9664516,7.22964645 L10.9651613,6.06195266 C11.2903226,5.66493675 11.4529032,5.22121313 11.4529032,4.68407397 C11.4529032,4.35711971 11.3832258,4.07687319 11.2670968,3.79662667 C11.1509677,3.51638015 10.9883871,3.2828414 10.7793548,3.07265653 C10.5703226,2.86247166 10.3380645,2.69899453 10.0593548,2.58222511 C9.52516131,2.34868633 8.8748387,2.34868633 8.34064517,2.58222511 C8.06193548,2.69899449 7.82967743,2.86247163 7.62064515,3.07265653 C7.41161291,3.2828414 7.24903226,3.51638018 7.13290322,3.79662667 C7.01677418,4.07687319 6.94709678,4.35711971 6.94709678,4.68407397 C6.94709678,4.96432049 6.99354838,5.19785923 7.08645162,5.43139801 C7.17935486,5.66493678 7.29548387,5.89847553 7.45806451,6.08530653 L8.36387097,7.22964645 L3.95096772,7.22964645 C3.78838708,7.22964645 3.67225804,7.27635419 3.57935483,7.39312358 C3.46322579,7.50989297 3.41677419,7.62666236 3.41677419,7.76678562 L3.41677419,9.72851119 C3.48645159,9.68180344 3.57935483,9.65844957 3.64903224,9.61174183 C3.71870964,9.58838796 3.81161288,9.54168022 3.92774192,9.49497244 C4.62451613,9.16801818 5.59999999,9.16801818 6.34322581,9.49497244 C6.7148387,9.65844957 7.06322582,9.89198835 7.34193547,10.1722348 C7.62064515,10.4524814 7.8529032,10.8027895 8.01548388,11.1764515 C8.17806452,11.5501135 8.27096776,11.9704833 8.27096773,12.414207 C8.2709677,12.8579306 8.17806449,13.2783004 8.01548388,13.6519624 C7.85290323,14.0256244 7.62064515,14.3525787 7.34193547,14.6328252 C7.06322579,14.9130717 6.7148387,15.1466104 6.34322581,15.3100876 C5.57677419,15.6370418 4.69419354,15.6603957 3.85806452,15.2633798 C3.74193548,15.2166721 3.60258064,15.1466104 3.41677419,15.053195 Z" id="Shape" fill="#515151" fill-rule="nonzero"></path>
                    <text id="Producer-Screenwrite" font-family="AvenirNext-Regular, Avenir Next" font-size="12" font-weight="normal" fill="#4A4A4A">
                        <tspan x="0" y="43">Producer</tspan>
                        <tspan x="0" y="61">Screenwriter</tspan>
                    </text>
                </g>
                <g id="teammate" transform="translate(39.000000, 178.000000)">
                    <path d="M0,16.6962891 L0,17.0625 L0.375,17.0625 L7.125,17.0625 L14.625,17.0625 L15,17.0625 L15,16.6962891 C15,13.4083202 11.5296522,10.4707031 7.5,10.4707031 C7.25753972,10.4707031 7.01644169,10.4802485 6.77725397,10.4992174 C6.57082674,10.5155882 7.10823631,10.6922795 7.125,10.8938686 C7.34399465,10.8765012 7.27780116,11.203125 7.5,11.203125 C11.1373659,11.203125 14.25,13.8379408 14.25,16.6962891 L14.625,16.3300781 L7.125,16.3300781 L0.375,16.3300781 L0.75,16.6962891 C0.75,14.7514775 2.00703964,12.973624 4.03218088,11.9835601 C4.21737687,11.8930203 4.29234937,11.6730109 4.19963659,11.4921554 C4.10692384,11.3113 3.88163429,11.2380846 3.69643828,11.3286244 C1.42941816,12.4369396 0,14.4585912 0,16.6962891 Z M11.7567568,7.17480471 C11.7567568,4.86912373 9.85094182,3 7.5,3 C5.14905818,3 3.24324324,4.86912373 3.24324324,7.17480471 C3.24324324,9.48048565 5.14905818,11.3496094 7.5,11.3496094 C9.85094182,11.3496094 11.7567568,9.48048565 11.7567568,7.17480471 Z M3.98354877,7.17480471 C3.98354877,5.27011172 5.55791763,3.726053 7.5,3.726053 C9.44208237,3.726053 11.0164512,5.27011172 11.0164512,7.17480471 C11.0164512,9.07949767 9.44208237,10.6235564 7.5,10.6235564 C5.55791763,10.6235564 3.98354877,9.07949767 3.98354877,7.17480471 Z" id="Shape-Copy" fill="#515151" fill-rule="nonzero"></path>
                    <text id="TEAM" font-family="AvenirNext-Bold, Avenir Next" font-size="16" font-weight="bold" letter-spacing="0.5" fill="#4A4A4A">
                        <tspan x="22" y="16">TEAM</tspan>
                    </text>
                    <text id="Yuxuan-Liu-Angela-Hu" font-family="AvenirNext-Regular, Avenir Next" font-size="12" font-weight="normal" letter-spacing="0.5" fill="#4A4A4A">
                        <tspan x="0" y="44">Yuxuan Liu</tspan>
                        <tspan x="0" y="62">Angela Hu</tspan>
                        <tspan x="0" y="80">Zongyuan Yue</tspan>
                        <tspan x="0" y="98">Ziyu Wu</tspan>
                    </text>
                </g>
                <g id="duration" transform="translate(39.000000, 296.000000)">
                    <path d="M0.472908605,4.70245258 C0.586069786,4.70245258 0.699249057,4.66113517 0.7884925,4.57654494 L3.73289195,1.79743321 C3.91713644,1.62399787 3.92602639,1.3331465 3.75183061,1.14852178 C3.57801504,0.964277283 3.28638512,0.955007121 3.10291917,1.12998145 L0.157723049,3.90909318 C-0.0269016743,4.08290875 -0.0354113946,4.37376012 0.138802513,4.55878316 C0.229566821,4.65380234 0.351617952,4.70247069 0.472908605,4.70247069 L0.472908605,4.70245258 Z M17.5401124,4.70245258 C17.4226319,4.70267379 17.3095926,4.65757481 17.2245285,4.57654494 L14.2800929,1.79743321 C14.0958484,1.62399787 14.0869765,1.3331465 14.2611723,1.14852178 C14.4349879,0.964277283 14.7266178,0.955007121 14.9100837,1.12998145 L17.855298,3.90909318 C18.0399227,4.08290875 18.0484143,4.37376012 17.8742185,4.55878316 C17.7834542,4.65380234 17.661385,4.70247069 17.5401124,4.70247069 L17.5401124,4.70245258 Z M9.04549228,1.78892349 C4.18059378,1.78892349 0.236121123,5.73337804 0.236121123,10.5978963 C0.236121123,15.4651305 4.18019546,19.4076477 9.04549228,19.4076477 C11.0656094,19.4076477 12.9822338,18.7251319 14.5307313,17.49182 C14.7161346,17.3450364 14.747023,17.0742643 14.5987004,16.8884808 C14.4503778,16.7026973 14.1803843,16.6721709 13.994981,16.8204936 C12.5986626,17.9325329 10.8701755,18.5486186 9.04587251,18.5486186 C4.65529134,18.5486186 1.09632711,14.9888758 1.09632711,10.5978963 C1.09632711,6.20809371 4.65491111,2.64873115 9.04587251,2.64873116 C13.436852,2.64873116 16.9958162,6.20809371 16.9958162,10.5978963 C16.9958162,12.1035375 16.5771199,13.5462066 15.7984261,14.7965199 C15.6736591,14.9973674 15.735074,15.2631061 15.9363198,15.3886516 C16.1375476,15.5137988 16.4021455,15.4512252 16.5280532,15.2511382 C17.3909569,13.8656289 17.8556239,12.2657653 17.8556239,10.5978963 C17.8552437,5.73337806 13.9111693,1.78892349 9.04549228,1.78892349 Z" id="Shape" fill="#515151" fill-rule="nonzero"></path>
                    <path d="M14.4828234,10.171849 C14.4743318,10.171849 14.4654418,10.1726276 14.45657,10.1726276 C14.4526953,10.1726276 14.4488388,10.1722474 14.446141,10.1722474 L9.34135896,10.1722474 L9.34135896,5.06748338 C9.34135896,5.05937198 9.34097873,5.05126059 9.3402002,5.04314921 C9.34097875,5.03503781 9.34135898,5.02614788 9.34135896,5.01803648 C9.34135896,4.7569329 9.13240005,4.54565647 8.87437448,4.54565647 C8.61596867,4.54565647 8.40700976,4.75693292 8.40700976,5.01803648 C8.40700976,5.02614788 8.40778831,5.03463949 8.40816854,5.04275087 C8.40738999,5.05086227 8.40662955,5.05897366 8.40662955,5.06748338 L8.40662955,10.1672321 C8.14628642,10.1672321 7.93500999,10.3754124 7.93461165,10.6330578 C7.93423142,10.8663508 8.10572945,11.0594853 8.33091114,11.0954072 C8.35457507,11.1033187 8.37936058,11.10736 8.40431201,11.1073751 L8.405851,11.1073751 L8.405851,11.1096926 C8.405851,11.1201216 8.40700978,11.1324878 8.40856686,11.1417399 C8.42708908,11.3862586 8.62795469,11.5789947 8.8747728,11.5789947 C9.13278028,11.5789947 9.34135896,11.367338 9.34175728,11.1073751 L14.446141,11.1073751 C14.4554112,11.1073751 14.4639028,11.1073751 14.4712357,11.1065966 L14.4809042,11.1065966 C14.7420077,11.1073751 14.9536825,10.8984162 14.9548413,10.6411692 C14.9544429,10.382365 14.743945,10.1726276 14.4828234,10.1718671 L14.4828234,10.171849 Z" id="Shape" fill="#515151" fill-rule="nonzero"></path>
                    <text id="DURATION" font-family="AvenirNext-Bold, Avenir Next" font-size="16" font-weight="bold" letter-spacing="0.5" fill="#4A4A4A">
                        <tspan x="22" y="16">DURATION</tspan>
                    </text>
                    <text id="2015.12-2016.8" font-family="AvenirNext-Regular, Avenir Next" font-size="12" font-weight="normal" letter-spacing="0.5" fill="#4A4A4A">
                        <tspan x="0" y="41">2015.12-2016.8</tspan>
                        <tspan x="0" y="59"></tspan>
                        <tspan x="0" y="77"></tspan>
                    </text>
                </g>
            </g>
        </g>
    </g>
</svg>