<?xml version="1.0" encoding="utf-8"?>
<!-- Generator: Adobe Illustrator 20.0.0, SVG Export Plug-In . SVG Version: 6.00 Build 0)  -->
<svg version="1.1" id="Layer_1" xmlns="http://www.w3.org/2000/svg" xmlns:xlink="http://www.w3.org/1999/xlink" x="0px" y="0px"
	 viewBox="0 0 1024 1024" style="enable-background:new 0 0 1024 1024;" xml:space="preserve">
<style type="text/css">
	.st0{fill:#FDC00D;}
	.st1{opacity:0.47;fill:#FDC00D;}
</style>
<path class="st0" d="M797.4,383.6H209.8c-6.6,0-12-12-12-12v-66.8c0-6.6,5.4-12,12-12h587.5c6.6,0,12,5.4,12,12v66.8
	C809.4,378.2,804,383.6,797.4,383.6z"/>
<path class="st1" d="M797.4,731.2H209.8c-6.6,0-12-5.4-12-12V304.8c0-6.6,5.4-12,12-12h587.5c6.6,0,12,5.4,12,12v414.5
	C809.4,725.8,804,731.2,797.4,731.2z"/>
</svg>
